# xmcd
#
# Track frame offsets:
#	150
#	20853
#	42103
#	63757
#	84988
#	102551
#	124657
#	138802
#	167685
#	190885
#	213777
#
# Disc length: 3068 seconds
#
# Revision: 1
# Processed by: cddbd v1.5.2PL0 Copyright (c) Steve Scherf et al.
# Submitted via: audiograbber 1.83.01
#
DISCID=8d0bfa0b
DTITLE=John Crampton - live 'n' stompin'
DYEAR=1900
DGENRE=Blues
TTITLE0=Million Miles
TTITLE1=Micklepage Stomp
TTITLE2=Backdoor Man
TTITLE3=Smokestack Lightnin'
TTITLE4=Miss My Baby
TTITLE5=Baby Please Don't go
TTITLE6=Alligator Stomp
TTITLE7=Skin 'n' Bone
TTITLE8=Stop Breakin' down
TTITLE9=Train Song
TTITLE10=Love to You
EXTD=
EXTT0=
EXTT1=
EXTT2=
EXTT3=
EXTT4=
EXTT5=
EXTT6=
EXTT7=
EXTT8=
EXTT9=
EXTT10=
PLAYORDER=
